<?xml version="1.0" encoding="UTF-8"?>
<svg width="423px" height="79px" viewBox="0 0 423 79" version="1.1" xmlns="http://www.w3.org/2000/svg" xmlns:xlink="http://www.w3.org/1999/xlink">
    <!-- Generator: Sketch 52.2 (67145) - http://www.bohemiancoding.com/sketch -->
    <title>Element / Logo / AC / white-ls</title>
    <desc>Created with Sketch.</desc>
    <defs>
        <linearGradient x1="0.163483146%" y1="49.8112094%" x2="100.251124%" y2="49.8112094%" id="linearGradient-1">
            <stop stop-color="#FFFFFF" offset="0%"></stop>
            <stop stop-color="#FFFFFF" offset="51.36%"></stop>
            <stop stop-color="#FFFFFF" stop-opacity="0" offset="100%"></stop>
        </linearGradient>
        <linearGradient x1="0%" y1="50.0061926%" x2="99.9494932%" y2="50.0061926%" id="linearGradient-2">
            <stop stop-color="#FFFFFF" stop-opacity="0.4" offset="0%"></stop>
            <stop stop-color="#FFFFFF" offset="39.11%"></stop>
            <stop stop-color="#FFFFFF" offset="100%"></stop>
        </linearGradient>
    </defs>
    <g id="styles" stroke="none" stroke-width="1" fill="none" fill-rule="evenodd">
        <g id="Courses-Library" transform="translate(-845.000000, -518.000000)">
            <g id="Element-/-Logo-/-AC-/-white-ls" transform="translate(845.000000, 518.000000)">
                <g id="REC-logos-FINAL_ajs-wide-white" stroke-width="1">
                    <path d="M47.2555172,47.5372414 C49.3024948,46.948042 51.4198422,46.6387946 53.5498276,46.617931 C62.2462069,46.617931 67.3394828,50.74 67.3394828,57.7386207 L67.3394828,74.6198276 C67.3527401,74.8202246 67.2788983,75.0165988 67.1368865,75.1586106 C66.9948746,75.3006225 66.7985005,75.3744642 66.5981034,75.3612069 L62.2758621,75.3612069 C61.8965666,75.3814207 61.5402964,75.1786653 61.3639655,74.8422414 L60.845,73.8117241 C60.5039655,73.1222414 59.9924138,73.0110345 59.0137931,73.8117241 C57.2780652,75.2454267 55.089163,76.0153527 52.8381034,75.9839655 C46.0322414,75.9839655 41.962069,72.6106897 41.962069,66.827931 C41.962069,61.5048276 46.1953448,58.3613793 53.2903448,58.3613793 L58.6653448,58.3613793 L58.6653448,58.2501724 C58.4355172,55.7887931 56.3151724,54.357931 53.0605172,54.357931 C51.8055587,54.3889329 50.5597604,54.5807858 49.3536207,54.9287931 L47.1813793,55.5589655 C46.9926163,55.6277352 46.7832469,55.6107541 46.6080334,55.5124636 C46.43282,55.4141732 46.3091911,55.2443504 46.2694828,55.0474138 L44.4975862,49.1163793 C44.3906783,48.9283737 44.3903187,48.6980458 44.4966389,48.5097071 C44.602959,48.3213685 44.8003481,48.202673 45.0165517,48.197069 L47.2555172,47.5372414 Z M53.32,64.0181034 C51.6593103,64.0181034 50.4582759,64.93 50.4582759,66.1903448 C50.4582759,67.7917241 51.6593103,68.7110345 53.7203448,68.7110345 C56.6858621,68.7110345 58.3539655,67.2801724 58.7024138,64.1367241 L58.7024138,64.0255172 L53.3274138,64.0255172 L53.32,64.0181034 Z" id="Shape" fill="#FFFFFF" fill-rule="nonzero"></path>
                    <path d="M96.142069,58.5689655 C94.0217241,64.2331034 91.9606897,70.3568966 90.7596552,74.7087931 C90.6807719,75.0851512 90.3433214,75.3507373 89.9589655,75.3389655 L80.8103448,75.3389655 C80.4269822,75.3477402 80.0912182,75.0834815 80.0096552,74.7087931 C78.8086207,70.4162069 76.7475862,64.3294828 74.6346552,58.5689655 L70.6831034,48.1006897 C70.5452179,47.9150323 70.5385593,47.6628466 70.6664556,47.4701718 C70.7943518,47.2774969 71.0293358,47.1857118 71.2539655,47.2406897 L79.0903448,47.2406897 C79.4720349,47.2186599 79.8224396,47.4512562 79.9503448,47.8115517 L81.662931,52.6231034 C83.066714,56.5317853 84.1381026,60.5519725 84.8656897,64.6408621 C84.9843103,65.3822414 85.785,65.3822414 85.8962069,64.6408621 C86.5152647,60.5389316 87.5715677,56.5150385 89.047069,52.637931 L90.7596552,47.8263793 C90.8875604,47.4660838 91.2379651,47.2334875 91.6196552,47.2555172 L99.4560345,47.2555172 C99.6806642,47.2005394 99.9156482,47.2923245 100.043544,47.4849993 C100.171441,47.6776742 100.164782,47.9298599 100.026897,48.1155172 L96.142069,58.5689655 Z" id="Shape" fill="#FFFFFF" fill-rule="nonzero"></path>
                    <path d="M116.011034,74.5975862 C116.024292,74.7979832 115.95045,74.9943574 115.808438,75.1363692 C115.666426,75.2783811 115.470052,75.3522228 115.269655,75.3389655 L107.715,75.3389655 C107.513945,75.3547652 107.316052,75.2817454 107.173446,75.1391398 C107.030841,74.9965342 106.957821,74.7986412 106.973621,74.5975862 L106.973621,55.2031034 L104.008103,55.2031034 C103.807049,55.2189031 103.609155,55.1458833 103.46655,55.0032777 C103.323944,54.8606721 103.250924,54.6627791 103.266724,54.4617241 L103.266724,47.9968966 C103.250924,47.7958416 103.323944,47.5979486 103.46655,47.455343 C103.609155,47.3127373 103.807049,47.2397176 104.008103,47.2555172 L115.277069,47.2555172 C115.477466,47.2422599 115.67384,47.3161017 115.815852,47.4581135 C115.957864,47.6001254 116.031706,47.7964995 116.018448,47.9968966 L116.018448,74.605 L116.011034,74.5975862 Z" id="Shape" fill="#FFFFFF" fill-rule="nonzero"></path>
                    <path d="M126.205,47.5372414 C128.2519,46.9476847 130.369297,46.6384301 132.49931,46.617931 C141.19569,46.617931 146.288966,50.74 146.288966,57.7386207 L146.288966,74.6198276 C146.302223,74.8202246 146.228381,75.0165988 146.086369,75.1586106 C145.944357,75.3006225 145.747983,75.3744642 145.547586,75.3612069 L141.255,75.3612069 C140.873091,75.3844047 140.513149,75.181212 140.33569,74.8422414 L139.816724,73.8117241 C139.47569,73.1222414 138.964138,73.0110345 137.985517,73.8117241 C136.249467,75.2448556 134.060781,76.0147054 131.809828,75.9839655 C124.996552,75.9839655 120.933793,72.6106897 120.933793,66.827931 C120.933793,61.5048276 125.167069,58.3613793 132.269483,58.3613793 L137.644483,58.3613793 L137.644483,58.2501724 C137.414655,55.7887931 135.301724,54.357931 132.039655,54.357931 C130.784675,54.388688 129.538845,54.5805457 128.332759,54.9287931 L126.160517,55.5589655 C125.970869,55.6303603 125.759416,55.6147125 125.582343,55.5161799 C125.40527,55.4176473 125.280508,55.2462076 125.241207,55.0474138 L123.46931,49.1163793 C123.362402,48.9283737 123.362043,48.6980458 123.468363,48.5097071 C123.574683,48.3213685 123.772072,48.202673 123.988276,48.197069 L126.205,47.5372414 Z M132.269483,64.0181034 C130.608793,64.0181034 129.407759,64.93 129.407759,66.1903448 C129.407759,67.7917241 130.608793,68.7110345 132.669828,68.7110345 C135.635345,68.7110345 137.303448,67.2801724 137.644483,64.1367241 L137.644483,64.0255172 L132.269483,64.0255172 L132.269483,64.0181034 Z" id="Shape" fill="#FFFFFF" fill-rule="nonzero"></path>
                    <path d="M170.168793,47.2481034 C170.369848,47.2323038 170.567741,47.3053235 170.710347,47.4479292 C170.852952,47.5905348 170.925972,47.7884278 170.910172,47.9894828 L170.910172,54.4543103 C170.925972,54.6553653 170.852952,54.8532583 170.710347,54.9958639 C170.567741,55.1384696 170.369848,55.2114893 170.168793,55.1956897 L163.696552,55.1956897 L163.696552,65.575 C163.696552,67.0577586 164.267414,67.9177586 165.17931,67.9177586 C165.666435,67.9312244 166.151768,67.8532693 166.610172,67.687931 C166.791611,67.5893693 167.005934,67.5709391 167.201536,67.6370779 C167.397138,67.7032167 167.556297,67.847932 167.64069,68.0363793 L170.331897,73.53 C170.531817,73.8814777 170.43239,74.327295 170.102069,74.5605172 C168.625074,75.476777 166.917305,75.952586 165.17931,75.932069 C158.543966,75.932069 154.651724,72.0991379 154.651724,65.5527586 L154.651724,55.1734483 L151.686207,55.1734483 C151.485152,55.1892479 151.287259,55.1162282 151.144653,54.9736226 C151.002048,54.831017 150.929028,54.6331239 150.944828,54.432069 L150.944828,47.9672414 C150.929028,47.7661864 151.002048,47.5682934 151.144653,47.4256878 C151.287259,47.2830822 151.485152,47.2100624 151.686207,47.2258621 L154.651724,47.2258621 L154.651724,40.9908621 C154.631669,40.5911497 154.894715,40.2321684 155.281897,40.1308621 L162.836552,37.6101724 C163.036765,37.497826 163.284156,37.5128145 163.469341,37.6485107 C163.654527,37.784207 163.743355,38.0155859 163.696552,38.2403448 L163.696552,47.2258621 L170.168793,47.2258621 L170.168793,47.2481034 Z" id="Shape" fill="#FFFFFF" fill-rule="nonzero"></path>
                    <path d="M187.405862,74.5975862 C187.421662,74.7986412 187.348642,74.9965342 187.206036,75.1391398 C187.063431,75.2817454 186.865538,75.3547652 186.664483,75.3389655 L179.109828,75.3389655 C178.908773,75.3547652 178.71088,75.2817454 178.568274,75.1391398 C178.425668,74.9965342 178.352649,74.7986412 178.368448,74.5975862 L178.368448,55.2031034 L175.402931,55.2031034 C175.202534,55.2163607 175.00616,55.142519 174.864148,55.0005072 C174.722136,54.8584953 174.648294,54.6621212 174.661552,54.4617241 L174.661552,47.9968966 C174.648294,47.7964995 174.722136,47.6001254 174.864148,47.4581135 C175.00616,47.3161017 175.202534,47.2422599 175.402931,47.2555172 L186.671897,47.2555172 C186.872951,47.2397176 187.070845,47.3127373 187.21345,47.455343 C187.356056,47.5979486 187.429076,47.7958416 187.413276,47.9968966 L187.413276,74.605 L187.405862,74.5975862 Z M187.235345,38.3218966 C187.235345,41.5839655 185.404138,43.5856897 182.142069,43.5856897 C178.88,43.5856897 177.048793,41.5765517 177.048793,38.3218966 C177.048793,35.0672414 178.931897,33.1322414 182.142069,33.1322414 C185.352241,33.1322414 187.235345,35.0005172 187.235345,38.3218966 Z" id="Shape" fill="#FFFFFF" fill-rule="nonzero"></path>
                    <path d="M220.486207,61.2601724 C220.486207,70.305 215.163103,75.9691379 206.577931,75.9691379 C197.992759,75.9691379 192.617759,70.305 192.617759,61.2601724 C192.617759,52.3636207 197.933448,46.6105172 206.577931,46.6105172 C215.222414,46.6105172 220.486207,52.3413793 220.486207,61.2601724 Z M201.492069,61.2601724 C201.492069,65.4415517 203.441897,67.9325862 206.585345,67.9325862 C209.728793,67.9325862 211.61931,65.4193103 211.61931,61.2601724 C211.61931,57.1010345 209.669483,54.6841379 206.585345,54.6841379 C203.501207,54.6841379 201.492069,57.1455172 201.492069,61.2601724 Z" id="Shape" fill="#FFFFFF" fill-rule="nonzero"></path>
                    <path d="M232.118448,48.9310345 C232.696724,49.7910345 233.037759,49.7317241 233.890345,48.9903448 C235.760264,47.4254877 238.124484,46.5743685 240.562759,46.5882759 C247.316724,46.5882759 251.431379,50.4805172 251.431379,57.1751724 L251.431379,74.567931 C251.447179,74.768986 251.374159,74.966879 251.231554,75.1094846 C251.088948,75.2520902 250.891055,75.32511 250.69,75.3093103 L243.053793,75.3093103 C242.853396,75.3225676 242.657022,75.2487259 242.51501,75.1067141 C242.372998,74.9647022 242.299156,74.7683281 242.312414,74.567931 L242.312414,58.3465517 C242.312414,56.0037931 241.111379,54.6841379 239.109655,54.6841379 C236.366552,54.6841379 234.817069,56.6858621 234.817069,60.5262069 L234.817069,74.6124138 C234.832869,74.8134687 234.759849,75.0113618 234.617243,75.1539674 C234.474638,75.296573 234.276745,75.3695928 234.07569,75.3537931 L226.45431,75.3537931 C226.253255,75.3695928 226.055362,75.296573 225.912757,75.1539674 C225.770151,75.0113618 225.697131,74.8134687 225.712931,74.6124138 L225.712931,47.9894828 C225.697131,47.7884278 225.770151,47.5905348 225.912757,47.4479292 C226.055362,47.3053235 226.253255,47.2323038 226.45431,47.2481034 L230.517069,47.2481034 C230.883844,47.2250925 231.226468,47.4318486 231.377069,47.767069 L232.118448,48.9310345 Z" id="Shape" fill="#FFFFFF" fill-rule="nonzero"></path>
                    <g id="mark" fill-rule="nonzero">
                        <path d="M30.9126761,77.9066556 L31.6112676,77.9066556 C14.8450704,77.9066556 1.04788732,64.8936758 1.04788732,52.5655896 L1.04788732,20.03314 C1.04788732,29.1079812 13.971831,44.6893123 32.1352113,44.6893123 L32.1352113,65.5785695 L31.9605634,78.077879" id="SVGID_9_" fill="url(#linearGradient-1)"></path>
                        <path d="M104.264789,31.6763325 C94.1352113,22.087821 78.7661972,9.58851146 57.6338028,3.5956918 C34.4056338,-2.91079812 2.44507042,1.88345761 0.873239437,19.8619166 C0.873239437,31.8475559 1.04788732,52.9080365 1.04788732,52.9080365 C1.04788732,37.8403756 23.228169,25.8547363 55.3633803,24.3137255 C71.9549296,23.4576084 93.6112676,26.8820768 104.264789,31.6763325" id="SVGID_14_" fill="url(#linearGradient-2)"></path>
                        <polygon id="Shape" fill="#FFFFFF" points="100.771831 38.3540458 100.771831 38.5252693 123.301408 41.0936205 107.932394 24.8273957 108.630986 33.5597901"></polygon>
                    </g>
                </g>
                <path d="M285.129,74.295 L283.625,74.718 C282.121,75.188 280.57,75.47 278.972,75.47 C272.11,75.47 268.35,70.958 268.35,63.72 C268.35,56.529 272.063,52.017 279.019,52.017 C280.476,52.017 281.839,52.252 283.39,52.722 L284.847,53.145 C285.129,53.192 285.223,53.38 285.129,53.662 L284.518,55.542 C284.424,55.777 284.236,55.871 284.001,55.824 L282.685,55.448 C281.322,54.978 280.1,54.837 279.066,54.837 C273.896,54.837 271.405,58.221 271.405,63.72 C271.405,69.313 273.99,72.65 278.972,72.65 C280.147,72.65 281.557,72.415 282.967,71.992 L284.283,71.616 C284.565,71.522 284.753,71.616 284.847,71.898 L285.411,73.731 C285.505,74.013 285.411,74.201 285.129,74.295 Z M300.228,52.017 C306.573,52.017 310.474,56.529 310.474,63.72 C310.474,70.958 306.573,75.47 300.228,75.47 C293.883,75.47 289.982,70.958 289.982,63.72 C289.982,56.529 293.883,52.017 300.228,52.017 Z M300.228,54.837 C295.716,54.837 293.037,58.174 293.037,63.72 C293.037,69.313 295.716,72.65 300.228,72.65 C304.74,72.65 307.466,69.313 307.466,63.72 C307.466,58.174 304.74,54.837 300.228,54.837 Z M333.234,74.577 L333.046,71.71 C332.905,71.287 332.623,71.287 332.341,71.663 C330.555,74.201 328.064,75.47 324.821,75.47 C319.651,75.47 316.502,71.992 316.502,66.352 L316.502,52.91 C316.502,52.628 316.643,52.487 316.925,52.487 L319.134,52.487 C319.416,52.487 319.557,52.628 319.557,52.91 L319.557,66.117 C319.557,70.206 321.625,72.65 325.103,72.65 C329.756,72.65 332.482,69.172 332.482,63.203 L332.482,52.91 C332.482,52.628 332.623,52.487 332.905,52.487 L335.114,52.487 C335.396,52.487 335.537,52.628 335.537,52.91 L335.537,74.577 C335.537,74.859 335.396,75 335.114,75 L333.657,75 C333.375,75 333.234,74.859 333.234,74.577 Z M354.443,52.44 L354.443,54.414 C354.443,54.696 354.302,54.837 354.02,54.837 C348.991,55.072 346.124,59.302 346.124,67.245 L346.124,74.577 C346.124,74.859 345.983,75 345.701,75 L343.492,75 C343.21,75 343.069,74.859 343.069,74.577 L343.069,52.91 C343.069,52.628 343.21,52.487 343.492,52.487 L344.949,52.487 C345.231,52.487 345.372,52.628 345.419,52.91 L345.748,56.435 C345.842,56.811 346.124,56.905 346.359,56.529 C348.145,53.709 350.448,52.158 354.02,52.017 C354.302,52.017 354.443,52.158 354.443,52.44 Z M370.153,65.506 L364.654,63.955 C361.176,63.062 359.578,61.229 359.578,58.127 C359.578,54.32 362.539,52.017 367.615,52.017 C369.683,52.017 371.704,52.299 373.114,52.722 L374.947,53.286 C375.229,53.38 375.323,53.568 375.229,53.85 L374.712,55.683 C374.618,55.965 374.43,56.059 374.148,55.965 L372.362,55.448 C371.093,55.072 369.307,54.837 367.662,54.837 C364.466,54.837 362.633,56.153 362.633,58.127 C362.633,59.772 363.526,60.806 365.641,61.417 L371.093,62.968 C374.759,63.908 376.357,65.882 376.357,68.937 C376.357,73.026 373.208,75.47 367.803,75.47 C365.03,75.47 362.633,75.094 360.706,74.389 L359.437,73.966 C359.155,73.872 359.061,73.684 359.155,73.402 L359.813,71.522 C359.907,71.287 360.095,71.193 360.33,71.287 L361.552,71.71 C363.15,72.274 365.312,72.65 367.803,72.65 C371.281,72.65 373.302,71.24 373.302,68.937 C373.302,67.198 372.315,66.164 370.153,65.506 Z M398.13,74.342 L396.626,74.765 C394.981,75.282 393.336,75.47 391.55,75.47 C385.064,75.47 381.21,70.958 381.21,63.72 C381.21,56.529 385.111,52.017 391.503,52.017 C396.814,52.017 400.01,54.602 400.01,58.973 C400.01,62.263 397.942,64.19 393.712,64.895 L384.547,66.399 C385.158,70.347 387.696,72.65 391.55,72.65 C393.148,72.65 394.605,72.462 395.921,72.039 L397.331,71.616 C397.613,71.569 397.801,71.663 397.895,71.945 L398.459,73.825 C398.506,74.107 398.412,74.295 398.13,74.342 Z M384.312,63.814 L393.195,62.31 C395.686,61.887 396.955,60.806 396.955,59.02 C396.955,56.388 394.934,54.837 391.456,54.837 C387.085,54.837 384.453,57.798 384.312,63.814 Z M416.096,65.506 L410.597,63.955 C407.119,63.062 405.521,61.229 405.521,58.127 C405.521,54.32 408.482,52.017 413.558,52.017 C415.626,52.017 417.647,52.299 419.057,52.722 L420.89,53.286 C421.172,53.38 421.266,53.568 421.172,53.85 L420.655,55.683 C420.561,55.965 420.373,56.059 420.091,55.965 L418.305,55.448 C417.036,55.072 415.25,54.837 413.605,54.837 C410.409,54.837 408.576,56.153 408.576,58.127 C408.576,59.772 409.469,60.806 411.584,61.417 L417.036,62.968 C420.702,63.908 422.3,65.882 422.3,68.937 C422.3,73.026 419.151,75.47 413.746,75.47 C410.973,75.47 408.576,75.094 406.649,74.389 L405.38,73.966 C405.098,73.872 405.004,73.684 405.098,73.402 L405.756,71.522 C405.85,71.287 406.038,71.193 406.273,71.287 L407.495,71.71 C409.093,72.274 411.255,72.65 413.746,72.65 C417.224,72.65 419.245,71.24 419.245,68.937 C419.245,67.198 418.258,66.164 416.096,65.506 Z" id="courses" fill="#FFFFFF"></path>
            </g>
        </g>
    </g>
</svg>