<?xml version="1.0" encoding="utf-8"?>
<!-- Generator: Adobe Illustrator 22.1.0, SVG Export Plug-In . SVG Version: 6.00 Build 0)  -->
<svg version="1.1" id="Layer_1" width="14" height="14" fill="#7f848e" xmlns="http://www.w3.org/2000/svg" xmlns:xlink="http://www.w3.org/1999/xlink" x="0px" y="0px"
	 viewBox="0 0 512 512" style="enable-background:new 0 0 512 512;" xml:space="preserve">
<g>
	<path d="M438.8,31H73.2C50,31,31,50,31,73.2v365.6C31,462,50,481,73.2,481h365.6c23.2,0,42.2-19,42.2-42.2V73.2
		C481,50,462,31,438.8,31z M409.6,180.4c-1.4,31.6-23.6,75-66.3,130c-44.2,57.5-81.6,86.2-112.2,86.2c-19,0-35-17.5-48.1-52.5
		c-8.8-32.1-17.5-64.2-26.3-96.2c-9.7-35-20.1-52.5-31.3-52.5c-2.4,0-11,5.1-25.5,15.3l-15.3-19.7c16.1-14.1,31.9-28.2,47.4-42.3
		c21.5-18.5,37.4-28.2,48.1-29.2c25.3-2.4,40.9,14.8,46.7,51.9c6.3,40,10.7,64.8,13.2,74.5c7.3,33.1,15.3,49.7,24.1,49.7
		c6.8,0,17-10.7,30.7-32.3c13.6-21.5,20.9-37.9,21.9-49.1c1.9-18.5-5.4-27.9-21.9-27.9c-7.8,0-15.8,1.8-24.1,5.4
		c16-52.3,46.5-77.8,91.6-76.3C395.9,116.4,411.6,138.1,409.6,180.4z"/>
</g>
</svg>
